<svg width="70" height="70" viewBox="0 0 70 70" fill="none" xmlns="http://www.w3.org/2000/svg">
<g clip-path="url(#clip0_1928_14014)">
<rect x="0.75" y="5.40869" width="41.7898" height="52.8426" rx="7.01042" fill="white" stroke="#A8A8A8" stroke-width="1.5" stroke-linecap="round"/>
<path d="M8.28955 14.7905H19.3423" stroke="#A8A8A8" stroke-width="1.5" stroke-linecap="round"/>
<path d="M8.28955 24.001H23.0265" stroke="#A8A8A8" stroke-width="1.5" stroke-linecap="round"/>
<path d="M8.44604 32.4082H19.1465" stroke="#A8A8A8" stroke-width="1.5" stroke-linecap="round"/>
<path fill-rule="evenodd" clip-rule="evenodd" d="M42.1041 22.6729C37.1038 22.6729 33.0503 26.7264 33.0503 31.7267V40.2515C33.0503 45.2518 37.1038 49.3054 42.1041 49.3054H43.7978C48.7981 49.3054 52.8516 45.2518 52.8516 40.2515V31.7267C52.8516 26.7264 48.7981 22.6729 43.7978 22.6729H42.1041ZM41.8462 26.1967C38.9889 26.1967 36.6726 28.513 36.6726 31.3703V37.9136C36.6726 40.7709 38.9889 43.0872 41.8462 43.0872H44.0571C46.9144 43.0872 49.2307 40.7709 49.2307 37.9136V31.3703C49.2307 28.513 46.9144 26.1967 44.0571 26.1967H41.8462Z" fill="#D5FF00"/>
<path d="M33.8003 31.7267C33.8003 27.1406 37.518 23.4229 42.1041 23.4229V21.9229C36.6896 21.9229 32.3003 26.3122 32.3003 31.7267H33.8003ZM33.8003 40.2515V31.7267H32.3003V40.2515H33.8003ZM42.1041 48.5554C37.518 48.5554 33.8003 44.8376 33.8003 40.2515H32.3003C32.3003 45.666 36.6896 50.0554 42.1041 50.0554V48.5554ZM43.7978 48.5554H42.1041V50.0554H43.7978V48.5554ZM52.1016 40.2515C52.1016 44.8376 48.3838 48.5554 43.7978 48.5554V50.0554C49.2123 50.0554 53.6016 45.666 53.6016 40.2515H52.1016ZM52.1016 31.7267V40.2515H53.6016V31.7267H52.1016ZM43.7978 23.4229C48.3839 23.4229 52.1016 27.1406 52.1016 31.7267H53.6016C53.6016 26.3122 49.2123 21.9229 43.7978 21.9229V23.4229ZM42.1041 23.4229H43.7978V21.9229H42.1041V23.4229ZM37.4226 31.3703C37.4226 28.9272 39.4031 26.9467 41.8462 26.9467V25.4467C38.5747 25.4467 35.9226 28.0988 35.9226 31.3703H37.4226ZM37.4226 37.9136V31.3703H35.9226V37.9136H37.4226ZM41.8462 42.3372C39.4032 42.3372 37.4226 40.3567 37.4226 37.9136H35.9226C35.9226 41.1851 38.5747 43.8372 41.8462 43.8372V42.3372ZM44.0571 42.3372H41.8462V43.8372H44.0571V42.3372ZM48.4807 37.9136C48.4807 40.3567 46.5002 42.3372 44.0571 42.3372V43.8372C47.3287 43.8372 49.9807 41.1851 49.9807 37.9136H48.4807ZM48.4807 31.3703V37.9136H49.9807V31.3703H48.4807ZM44.0571 26.9467C46.5002 26.9467 48.4807 28.9272 48.4807 31.3703H49.9807C49.9807 28.0988 47.3286 25.4467 44.0571 25.4467V26.9467ZM41.8462 26.9467H44.0571V25.4467H41.8462V26.9467Z" fill="#A8A8A8"/>
<rect x="25.75" y="36.2695" width="34.1761" height="32.1159" rx="5.71702" fill="#D5FF00" stroke="#A8A8A8" stroke-width="1.5" stroke-linecap="round"/>
<path fill-rule="evenodd" clip-rule="evenodd" d="M44.4712 53.7196C45.7261 53.1006 46.5895 51.8082 46.5895 50.3143C46.5895 48.2185 44.8905 46.5195 42.7947 46.5195C40.699 46.5195 39 48.2185 39 50.3143C39 51.8086 39.8637 53.1011 41.1192 53.72V57.9986C41.1192 58.9242 41.8695 59.6746 42.7952 59.6746C43.7208 59.6746 44.4712 58.9242 44.4712 57.9986V53.7196Z" fill="white"/>
<path d="M44.4712 53.7196L44.1394 53.0469L43.7212 53.2532V53.7196H44.4712ZM41.1192 53.72H41.8692V53.2535L41.4508 53.0473L41.1192 53.72ZM45.8395 50.3143C45.8395 51.5119 45.1482 52.5494 44.1394 53.0469L44.8029 54.3922C46.3041 53.6517 47.3395 52.1046 47.3395 50.3143H45.8395ZM42.7947 47.2695C44.4763 47.2695 45.8395 48.6327 45.8395 50.3143H47.3395C47.3395 47.8043 45.3047 45.7695 42.7947 45.7695V47.2695ZM39.75 50.3143C39.75 48.6327 41.1132 47.2695 42.7947 47.2695V45.7695C40.2847 45.7695 38.25 47.8043 38.25 50.3143H39.75ZM41.4508 53.0473C40.4416 52.5499 39.75 51.5121 39.75 50.3143H38.25C38.25 52.105 39.2858 53.6524 40.7876 54.3927L41.4508 53.0473ZM41.8692 57.9986V53.72H40.3692V57.9986H41.8692ZM42.7952 58.9246C42.2837 58.9246 41.8692 58.51 41.8692 57.9986H40.3692C40.3692 59.3384 41.4553 60.4246 42.7952 60.4246V58.9246ZM43.7212 57.9986C43.7212 58.51 43.3066 58.9246 42.7952 58.9246V60.4246C44.135 60.4246 45.2212 59.3384 45.2212 57.9986H43.7212ZM43.7212 53.7196V57.9986H45.2212V53.7196H43.7212Z" fill="#A8A8A8"/>
</g>
<defs>
<clipPath id="clip0_1928_14014">
<rect width="70" height="70" fill="white"/>
</clipPath>
</defs>
</svg>
